SplineFontDB: 3.0
FontName: TwidereIconic
FullName: TwidereIconic
FamilyName: TwidereIconic
Weight: Regular
Copyright: Created by Mariotaku Lee,,, with FontForge 2.0 (http://fontforge.sf.net)
UComments: "2014-1-30: Created." 
Version: 001.000
ItalicAngle: 0
UnderlinePosition: -101
UnderlineWidth: 50
Ascent: 820
Descent: 204
LayerCount: 2
Layer: 0 0 "+gMxmbwAA"  1
Layer: 1 0 "+Uk1mbwAA"  0
XUID: [1021 656 1482610534 14720646]
FSType: 0
OS2Version: 0
OS2_WeightWidthSlopeOnly: 0
OS2_UseTypoMetrics: 1
CreationTime: 1391066035
ModificationTime: 1395210427
PfmFamily: 17
TTFWeight: 400
TTFWidth: 5
LineGap: 92
VLineGap: 92
OS2TypoAscent: 0
OS2TypoAOffset: 1
OS2TypoDescent: 0
OS2TypoDOffset: 1
OS2TypoLinegap: 92
OS2WinAscent: 0
OS2WinAOffset: 1
OS2WinDescent: 0
OS2WinDOffset: 1
HheadAscent: 0
HheadAOffset: 1
HheadDescent: 0
HheadDOffset: 1
OS2Vendor: 'PfEd'
MarkAttachClasses: 1
DEI: 91125
LangName: 1033 
Encoding: UnicodeBmp
UnicodeInterp: none
NameList: Adobe Glyph List
DisplaySize: -72
AntiAlias: 1
FitToEm: 0
WinInfo: 61552 16 6
BeginPrivate: 0
EndPrivate
BeginChars: 65539 77

StartChar: brand_twidere
Encoding: 61440 61440 0
Width: 1024
VWidth: 0
Flags: HW
LayerCount: 2
Fore
SplineSet
393 403 m 1
 411 12 l 1
 203 199 l 1
 393 403 l 1
201 461 m 1
 328 345 l 1
 209 219 l 1
 201 461 l 1
396 411 m 1
 957 461 l 1
 702 160 l 1
 396 411 l 1
397 412 m 1
 409 18 l 1
 805 31 l 1
 397 412 l 1
323 593 m 1
 452 477 l 1
 336 350 l 1
 206 465 l 1
 323 593 l 1
67 595 m 1
 313 595 l 1
 200 473 l 1
 67 595 l 1
EndSplineSet
EndChar

StartChar: brand_twitter
Encoding: 61441 61441 1
Width: 1024
VWidth: 0
Flags: HW
LayerCount: 2
Fore
SplineSet
256 20 m 0
 -2 256 158 691 513 691 c 0
 868 691 1026 256 768 20 c 0
 726 -18 684 -39 630 -55 c 1
 544 189 l 1
 694 260 609 410 513 410 c 0
 417 410 330 260 480 189 c 1
 394 -55 l 1
 340 -39 298 -18 256 20 c 0
EndSplineSet
EndChar

StartChar: uniF002
Encoding: 61442 61442 2
Width: 1024
VWidth: 0
Flags: HW
LayerCount: 2
Fore
SplineSet
906 556 m 0
 885 524 858 496 827 474 c 1
 827 467 828 461 828 454 c 0
 828 246 670 6 380 6 c 0
 291 6 208 32 138 77 c 1
 150 76 163 75 176 75 c 0
 250 75 317 100 371 142 c 1
 302 143 244 188 224 251 c 1
 234 249 244 248 254 248 c 0
 268 248 282 250 295 254 c 1
 223 268 169 332 169 408 c 0
 169 409 169 409 169 410 c 1
 190 398 214 392 240 391 c 1
 198 419 170 467 170 522 c 0
 170 551 178 578 192 601 c 1
 270 506 385 443 516 436 c 1
 513 448 513 460 513 472 c 0
 513 559 583 630 670 630 c 0
 715 630 755 612 784 581 c 1
 820 588 854 600 884 618 c 1
 872 581 847 550 815 531 c 1
 847 535 878 543 906 556 c 0
EndSplineSet
EndChar

StartChar: uniF003
Encoding: 61443 61443 3
Width: 1024
VWidth: 0
Flags: HW
LayerCount: 2
Fore
SplineSet
188 631 m 1
 188 278 l 1
 422 278 l 1
 422 278 422 325 422 328 c 0
 421 330 413 334 410 335 c 2
 389 348 l 2
 383 352 368 364 362 362 c 2
 338 346 l 2
 320 334 298 321 278 312 c 0
 269 308 261 303 251 303 c 0
 226 302 210 330 226 350 c 0
 234 360 249 364 261 370 c 0
 280 379 299 391 316 403 c 1
 310 415 303 418 295 427 c 0
 286 437 278 446 271 458 c 0
 265 467 259 475 260 487 c 0
 261 500 267 504 275 513 c 1
 217 513 l 1
 217 574 l 1
 334 574 l 1
 334 602 l 1
 395 602 l 1
 395 574 l 1
 513 574 l 1
 513 513 l 1
 479 513 l 1
 478 500 473 492 467 480 c 0
 457 462 443 444 430 428 c 0
 424 420 416 413 412 404 c 1
 419 400 415 403 422 397 c 1
 422 397 520 397 540 397 c 1
 540 631 l 1
 188 631 l 1
340 513 m 1
 304 511 l 1
 316 505 318 496 325 486 c 0
 335 473 351 452 364 443 c 1
 380 460 405 492 414 513 c 1
 340 513 l 1
763 104 m 1
 714 234 l 1
 697 280 l 2
 692 297 688 296 678 296 c 2
 638 296 l 2
 628 296 628 294 623 280 c 2
 606 234 l 1
 554 94 l 1
 528 24 l 1
 578 24 l 2
 581 24 587 23 589 25 c 0
 592 27 594 35 595 38 c 2
 605 68 l 2
 606 72 609 77 612 79 c 0
 615 81 620 82 623 82 c 2
 696 82 l 2
 699 82 705 81 708 79 c 0
 711 77 713 72 714 68 c 2
 724 40 l 2
 729 25 727 24 739 24 c 2
 791 24 l 1
 763 104 l 1
695 124 m 1
 624 124 l 1
 659 223 l 1
 695 124 l 1
335 217 m 1
 335 130 l 1
 422 130 l 1
 422 217 l 1
 335 217 l 1
422 -77 m 1
 422 40 l 1
 346 40 l 1
 245 130 l 1
 245 217 l 1
 128 217 l 1
 128 691 l 1
 602 691 l 1
 602 691 602 638 602 631 c 2
 602 397 l 1
 896 397 l 1
 896 -77 l 1
 422 -77 l 1
EndSplineSet
EndChar

StartChar: uniF020
Encoding: 61472 61472 4
Width: 1024
VWidth: 0
Flags: HW
LayerCount: 2
Fore
SplineSet
886 338 m 1
 886 276 l 1
 543 276 l 1
 543 -67 l 1
 481 -67 l 1
 481 276 l 1
 138 276 l 1
 138 338 l 1
 481 338 l 1
 481 681 l 1
 543 681 l 1
 543 338 l 1
 886 338 l 1
EndSplineSet
EndChar

StartChar: uniF021
Encoding: 61473 61473 5
Width: 1024
VWidth: 0
Flags: HW
LayerCount: 2
Fore
SplineSet
499 486 m 1
 515 484 561 473 617 417 c 0
 658 376 684 334 687 299 c 1
 436 46 l 1
 436 46 410 76 413 129 c 1
 348 160 337 190 325 215 c 1
 269 213 248 233 248 233 c 1
 499 486 l 1
862 667 m 0
 936 607 914 546 886 517 c 0
 882 513 855 478 837 455 c 1
 836 479 826 522 775 573 c 0
 723 624 676 634 653 636 c 1
 674 653 702 676 711 685 c 0
 737 710 788 727 862 667 c 0
288 184 m 1
 304 133 358 101 378 95 c 1
 377 71 400 26 400 26 c 1
 112 -94 l 1
 227 195 l 1
 227 195 238 184 288 184 c 1
620 609 m 1
 620 609 675 610 744 541 c 0
 814 471 805 422 805 422 c 1
 778 395 l 1
 774 425 752 467 711 507 c 0
 646 571 592 581 592 581 c 1
 620 609 l 1
567 545 m 1
 567 545 619 547 685 481 c 0
 752 414 743 367 743 367 c 1
 716 340 l 1
 712 369 692 409 653 448 c 0
 591 509 539 518 539 518 c 1
 567 545 l 1
EndSplineSet
EndChar

StartChar: uniF022
Encoding: 61474 61474 6
Width: 1024
VWidth: 0
Flags: HW
LayerCount: 2
Fore
SplineSet
588 447 m 1
 443 447 l 1
 443 633 l 1
 588 633 l 1
 588 447 l 1
 588 447 l 1
692 201 m 1
 692 201 l 1
 319 201 l 1
 319 242 l 1
 692 242 l 1
 692 201 l 1
692 83 m 1
 692 83 l 1
 319 83 l 1
 319 126 l 1
 692 126 l 1
 692 83 l 1
863 518 m 1
 863 -26 l 2
 863 -38 854 -47 842 -47 c 2
 182 -47 l 2
 170 -47 161 -38 161 -26 c 2
 161 640 l 2
 161 652 170 661 182 661 c 2
 268 661 l 1
 268 408 l 1
 648 408 l 1
 648 661 l 1
 719 661 l 1
 863 518 l 1
756 333 m 1
 268 333 l 1
 268 1 l 1
 756 1 l 1
 756 333 l 1
EndSplineSet
EndChar

StartChar: uniF023
Encoding: 61475 61475 7
Width: 1024
VWidth: 0
Flags: HW
LayerCount: 2
Fore
SplineSet
735 373 m 1
 735 373 l 1
 735 371 l 2
 735 370 l 0
 735 369 l 2
 718 13 l 1
 718 13 l 1
 716 -15 685 -56 513 -56 c 0
 341 -56 308 -15 306 13 c 1
 306 13 l 1
 289 369 l 2
 289 370 l 0
 289 371 l 2
 289 373 l 1
 289 373 l 2
 290 376 291 378 294 381 c 1
 316 358 406 355 513 355 c 0
 620 355 708 358 730 381 c 1
 733 378 735 376 735 373 c 1
618 559 m 1
 705 550 766 531 766 508 c 2
 766 467 l 2
 766 458 757 449 742 442 c 0
 701 423 616 410 513 410 c 0
 410 410 323 423 282 442 c 0
 267 449 258 458 258 467 c 2
 258 508 l 2
 258 530 315 549 397 558 c 1
 397 643 l 2
 397 658 409 672 424 672 c 2
 590 672 l 2
 605 672 618 658 618 643 c 2
 618 559 l 1
450 562 m 2
 470 563 492 564 513 564 c 0
 534 564 553 563 572 562 c 1
 572 597 l 2
 572 612 570 624 567 624 c 0
 564 624 549 624 534 624 c 2
 480 624 l 2
 465 624 450 624 447 624 c 0
 444 624 443 612 443 597 c 2
 443 562 l 1
 450 562 l 2
EndSplineSet
EndChar

StartChar: uniF024
Encoding: 61476 61476 8
Width: 1024
VWidth: 0
Flags: HW
LayerCount: 2
Fore
SplineSet
888 537 m 1
 433 77 l 1
 433 77 l 1
 389 33 l 1
 136 285 l 1
 180 328 l 1
 388 121 l 1
 844 581 l 1
 888 537 l 1
EndSplineSet
EndChar

StartChar: uniF025
Encoding: 61477 61477 9
Width: 1024
VWidth: 0
Flags: HW
LayerCount: 2
Fore
SplineSet
798 549 m 1
 556 308 l 1
 798 65 l 1
 754 21 l 1
 513 263 l 1
 270 21 l 1
 226 65 l 1
 468 308 l 1
 226 549 l 1
 270 593 l 1
 513 351 l 1
 754 593 l 1
 798 549 l 1
EndSplineSet
EndChar

StartChar: uniF026
Encoding: 61478 61478 10
Width: 1024
VWidth: 0
Flags: HW
LayerCount: 2
Fore
SplineSet
630 553 m 1
 570 579 502 584 440 564 c 0
 322 526 246 414 254 291 c 1
 174 286 l 1
 164 447 262 592 416 640 c 0
 506 668 604 659 687 614 c 1
 765 698 l 1
 784 468 l 1
 542 459 l 1
 630 553 l 1
627 -25 m 0
 592 -35 558 -41 522 -41 c 0
 464 -41 408 -26 357 1 c 1
 278 -82 l 1
 258 149 l 1
 501 156 l 1
 413 63 l 1
 472 37 539 32 601 52 c 0
 719 90 797 202 789 325 c 1
 869 331 l 1
 879 170 781 23 627 -25 c 0
EndSplineSet
EndChar

StartChar: uniF027
Encoding: 61479 61479 11
Width: 1024
VWidth: 0
Flags: HW
LayerCount: 2
Fore
SplineSet
615 124 m 1
 615 -36 l 1
 455 -36 l 1
 455 124 l 1
 615 124 l 1
455 369 m 1
 615 369 l 1
 615 209 l 1
 455 209 l 1
 455 369 l 1
455 604 m 1
 615 604 l 1
 615 443 l 1
 455 443 l 1
 455 604 l 1
EndSplineSet
EndChar

StartChar: uniF028
Encoding: 61480 61480 12
Width: 1024
VWidth: 0
Flags: HW
LayerCount: 2
Fore
SplineSet
640 627 m 1
 256 627 l 1
 256 115 l 1
 288 115 l 1
 288 51 l 1
 256 51 l 1
 192 51 l 1
 192 691 l 1
 704 691 l 1
 704 627 l 1
 704 595 l 1
 640 595 l 1
 640 627 l 1
690 104 m 1
 448 104 l 1
 448 126 l 1
 690 126 l 1
 690 104 l 1
590 168 m 1
 448 168 l 1
 448 190 l 1
 590 190 l 1
 590 168 l 1
633 232 m 1
 448 232 l 1
 448 254 l 1
 633 254 l 1
 633 232 l 1
704 296 m 1
 448 296 l 1
 448 318 l 1
 704 318 l 1
 704 296 l 1
590 360 m 1
 448 360 l 1
 448 382 l 1
 590 382 l 1
 590 360 l 1
768 499 m 1
 384 499 l 1
 384 -13 l 1
 768 -13 l 1
 768 499 l 1
320 -77 m 1
 320 563 l 1
 832 563 l 1
 832 -77 l 1
 320 -77 l 1
EndSplineSet
EndChar

StartChar: uniF029
Encoding: 61481 61481 13
Width: 1024
VWidth: 0
Flags: HW
LayerCount: 2
Fore
SplineSet
840 160 m 0
 825 170 805 168 795 153 c 0
 791 148 789 141 789 134 c 0
 789 124 793 113 801 107 c 0
 808 102 818 100 826 101 c 0
 834 102 842 107 847 114 c 0
 851 119 854 127 854 134 c 0
 854 144 848 154 840 160 c 0
608 304 m 0
 608 290 620 279 634 279 c 0
 648 279 659 290 659 304 c 0
 659 318 648 329 634 329 c 0
 620 329 608 318 608 304 c 0
826 507 m 0
 818 508 808 506 801 501 c 0
 793 495 789 485 789 475 c 0
 789 468 791 461 795 456 c 0
 800 449 808 444 816 443 c 0
 824 442 833 444 840 449 c 0
 848 455 854 465 854 475 c 0
 854 482 851 490 847 495 c 0
 842 502 834 506 826 507 c 0
776 536 m 0
 809 561 857 553 882 520 c 0
 891 507 896 492 896 476 c 0
 896 452 885 429 866 414 c 0
 858 408 848 404 839 402 c 0
 833 400 826 398 821 397 c 0
 813 396 803 394 783 387 c 0
 745 372 713 343 713 343 c 0
 704 335 695 322 687 304 c 1
 695 286 704 273 713 266 c 0
 713 265 745 237 783 222 c 0
 803 215 813 212 821 211 c 0
 826 210 832 208 839 206 c 0
 847 204 858 200 866 194 c 0
 885 179 896 157 896 133 c 0
 896 117 891 102 882 89 c 0
 858 56 809 48 776 72 c 0
 764 80 755 94 751 103 c 0
 749 107 746 113 742 120 c 0
 739 126 733 134 728 143 c 0
 702 191 676 223 676 223 c 0
 676 223 661 239 644 254 c 1
 553 215 406 152 391 149 c 0
 370 144 349 158 348 159 c 2
 339 165 l 1
 349 172 l 1
 568 304 l 1
 349 437 l 1
 339 443 l 1
 348 450 l 2
 349 451 370 465 391 460 c 0
 406 457 553 394 644 355 c 1
 660 370 676 386 676 386 c 0
 676 386 702 417 728 465 c 0
 733 474 739 482 742 488 c 0
 746 495 749 502 751 506 c 0
 755 515 764 528 776 536 c 0
640 -13 m 1
 640 115 l 1
 704 115 l 1
 704 -77 l 1
 640 -77 l 1
 128 -77 l 1
 128 691 l 1
 704 691 l 1
 704 499 l 1
 640 499 l 1
 640 627 l 1
 191 627 l 1
 191 -13 l 1
 640 -13 l 1
EndSplineSet
EndChar

StartChar: uniF02A
Encoding: 61482 61482 14
Width: 1024
VWidth: 0
Flags: HW
LayerCount: 2
Fore
SplineSet
683 105 m 1
 320 105 l 1
 320 126 l 1
 683 126 l 1
 683 105 l 1
533 168 m 1
 320 168 l 1
 320 189 l 1
 533 189 l 1
 533 168 l 1
597 232 m 1
 320 232 l 1
 320 254 l 1
 597 254 l 1
 597 232 l 1
704 296 m 1
 320 296 l 1
 320 318 l 1
 704 318 l 1
 704 296 l 1
533 360 m 1
 320 360 l 1
 320 382 l 1
 533 382 l 1
 533 360 l 1
768 595 m 1
 619 595 l 1
 631 558 l 1
 690 545 704 510 704 468 c 1
 320 468 l 1
 320 508 337 540 392 555 c 1
 405 595 l 1
 256 595 l 1
 256 -45 l 1
 768 -45 l 1
 768 595 l 1
511 691 m 0
 493 691 480 677 480 659 c 0
 480 641 493 628 511 628 c 0
 529 628 544 641 544 659 c 0
 544 677 529 691 511 691 c 0
192 -109 m 1
 192 659 l 1
 448 659 l 1
 448 695 475 723 511 723 c 0
 547 723 576 695 576 659 c 1
 832 659 l 1
 832 -109 l 1
 192 -109 l 1
EndSplineSet
EndChar

StartChar: uniF02B
Encoding: 61483 61483 15
Width: 1024
VWidth: 0
Flags: HW
LayerCount: 2
Fore
SplineSet
733 -77 m 1
 692 -77 l 1
 692 -35 l 1
 733 -35 l 1
 733 -77 l 1
653 -77 m 1
 612 -77 l 1
 612 -35 l 1
 653 -35 l 1
 653 -77 l 1
572 -77 m 1
 532 -77 l 1
 532 -35 l 1
 572 -35 l 1
 572 -77 l 1
 572 -77 l 1
412 -77 m 1
 371 -77 l 1
 371 -35 l 1
 412 -35 l 1
 412 -77 l 1
332 -77 m 1
 291 -77 l 1
 291 -35 l 1
 332 -35 l 1
 332 -77 l 1
480 83 m 1
 288 83 l 1
 288 275 l 1
 480 275 l 1
 480 83 l 1
128 691 m 1
 170 691 l 1
 170 648 l 1
 128 648 l 1
 128 691 l 1
128 608 m 1
 170 608 l 1
 170 568 l 1
 128 568 l 1
 128 608 l 1
128 528 m 1
 170 528 l 1
 170 487 l 1
 128 487 l 1
 128 528 l 1
128 448 m 1
 170 448 l 1
 170 407 l 1
 128 407 l 1
 128 448 l 1
128 367 m 1
 170 367 l 1
 170 327 l 1
 128 327 l 1
 128 367 l 1
128 287 m 1
 170 287 l 1
 170 247 l 1
 128 247 l 1
 128 287 l 1
128 207 m 1
 170 207 l 1
 170 166 l 1
 128 166 l 1
 128 207 l 1
128 127 m 1
 170 127 l 1
 170 86 l 1
 128 86 l 1
 128 127 l 1
128 46 m 1
 170 46 l 1
 170 6 l 1
 128 6 l 1
 128 46 l 1
128 -35 m 1
 170 -35 l 1
 170 -77 l 1
 128 -77 l 1
 128 -35 l 1
211 691 m 1
 251 691 l 1
 251 648 l 1
 211 648 l 1
 211 691 l 1
211 -35 m 1
 251 -35 l 1
 251 -77 l 1
 211 -77 l 1
 211 -35 l 1
480 339 m 1
 288 339 l 1
 288 531 l 1
 480 531 l 1
 480 339 l 1
291 691 m 1
 332 691 l 1
 332 648 l 1
 291 648 l 1
 291 691 l 1
371 691 m 1
 412 691 l 1
 412 648 l 1
 371 648 l 1
 371 691 l 1
452 691 m 1
 492 691 l 1
 492 648 l 1
 452 648 l 1
 452 691 l 1
452 -35 m 1
 492 -35 l 1
 492 -77 l 1
 452 -77 l 1
 452 -35 l 1
532 691 m 1
 572 691 l 1
 572 648 l 1
 532 648 l 1
 532 691 l 1
612 691 m 1
 653 691 l 1
 653 648 l 1
 612 648 l 1
 612 691 l 1
692 691 m 1
 733 691 l 1
 733 648 l 1
 692 648 l 1
 692 691 l 1
544 531 m 1
 736 531 l 1
 736 339 l 1
 544 339 l 1
 544 531 l 1
544 275 m 1
 736 275 l 1
 736 83 l 1
 544 83 l 1
 544 275 l 1
773 691 m 1
 813 691 l 1
 813 648 l 1
 773 648 l 1
 773 691 l 1
773 -35 m 1
 813 -35 l 1
 813 -77 l 1
 773 -77 l 1
 773 -35 l 1
854 691 m 1
 896 691 l 1
 896 648 l 1
 854 648 l 1
 854 691 l 1
854 608 m 1
 896 608 l 1
 896 568 l 1
 854 568 l 1
 854 608 l 1
854 528 m 1
 896 528 l 1
 896 487 l 1
 854 487 l 1
 854 528 l 1
854 448 m 1
 896 448 l 1
 896 407 l 1
 854 407 l 1
 854 448 l 1
854 367 m 1
 896 367 l 1
 896 327 l 1
 854 327 l 1
 854 367 l 1
854 287 m 1
 896 287 l 1
 896 247 l 1
 854 247 l 1
 854 287 l 1
854 207 m 1
 896 207 l 1
 896 166 l 1
 854 166 l 1
 854 207 l 1
854 127 m 1
 896 127 l 1
 896 86 l 1
 854 86 l 1
 854 127 l 1
854 46 m 1
 896 46 l 1
 896 6 l 1
 854 6 l 1
 854 46 l 1
854 -77 m 1
 854 -35 l 1
 896 -35 l 1
 896 -77 l 1
 854 -77 l 1
EndSplineSet
EndChar

StartChar: uniF02C
Encoding: 61484 61484 16
Width: 1024
VWidth: 0
Flags: HW
LayerCount: 2
Fore
SplineSet
513 704 m 1
 630 427 l 1
 929 401 l 1
 702 203 l 1
 770 -90 l 1
 513 65 l 1
 254 -90 l 1
 322 203 l 1
 95 401 l 1
 394 427 l 1
 513 704 l 1
EndSplineSet
EndChar

StartChar: uniF02D
Encoding: 61485 61485 17
Width: 1024
VWidth: 0
Flags: HW
LayerCount: 2
Fore
SplineSet
217 15 m 1
 272 281 l 1
 628 305 l 1
 628 309 l 1
 272 334 l 1
 217 599 l 1
 807 308 l 1
 217 15 l 1
EndSplineSet
EndChar

StartChar: uniF02E
Encoding: 61486 61486 18
Width: 1024
VWidth: 0
Flags: HW
LayerCount: 2
Fore
SplineSet
746 170 m 0
 809 170 860 119 860 56 c 0
 860 -7 809 -58 746 -58 c 0
 683 -58 632 -7 632 56 c 0
 632 68 633 77 636 87 c 2
 364 233 l 1
 343 209 313 194 278 194 c 0
 215 194 164 245 164 308 c 0
 164 371 215 420 278 420 c 0
 313 420 343 405 364 381 c 1
 636 527 l 2
 633 537 632 546 632 558 c 0
 632 621 683 672 746 672 c 0
 809 672 860 621 860 558 c 0
 860 495 809 443 746 443 c 0
 711 443 680 460 659 484 c 1
 388 338 l 2
 391 328 392 320 392 308 c 0
 392 296 391 286 388 276 c 2
 659 130 l 1
 680 154 711 170 746 170 c 0
EndSplineSet
EndChar

StartChar: uniF02F
Encoding: 61487 61487 19
Width: 1024
VWidth: 0
Flags: HW
LayerCount: 2
Fore
SplineSet
146 402 m 5
 465 244 l 5
 784 402 l 5
 784 69 l 5
 146 69 l 5
 146 402 l 5
146 542 m 5
 784 542 l 5
 784 453 l 5
 465 294 l 5
 146 453 l 5
 146 542 l 5
896 0 m 5
 1024 0 l 5
 1024 -41 l 5
 896 -41 l 5
 896 -169 l 5
 857 -169 l 5
 857 -41 l 5
 729 -41 l 5
 729 0 l 5
 857 0 l 5
 857 129 l 5
 896 129 l 5
 896 0 l 5
EndSplineSet
EndChar

StartChar: uniF030
Encoding: 61488 61488 20
Width: 1024
VWidth: 0
Flags: HW
LayerCount: 2
Fore
SplineSet
736 606 m 1
 736 573 l 1
 246 573 l 1
 246 29 l 1
 790 29 l 1
 790 349 l 1
 821 349 l 1
 821 -2 l 1
 213 -2 l 1
 213 606 l 1
 736 606 l 1
406 413 m 1
 523 308 l 1
 854 627 l 1
 928 552 l 1
 523 147 l 1
 331 339 l 1
 406 413 l 1
EndSplineSet
EndChar

StartChar: uniFFFD
Encoding: 65533 65533 21
Width: 1024
VWidth: 0
Flags: HW
LayerCount: 2
Fore
SplineSet
453 127 m 0
 443 117 437 102 437 84 c 0
 437 66 443 51 453 41 c 0
 463 31 478 25 498 25 c 0
 518 25 532 31 542 41 c 0
 552 51 558 66 558 84 c 0
 558 102 552 117 542 127 c 0
 532 137 518 142 498 142 c 0
 478 142 463 137 453 127 c 0
449 226 m 2
 449 201 l 1
 539 201 l 1
 539 221 l 2
 539 227 540 233 541 238 c 0
 542 243 544 249 546 253 c 0
 548 257 554 263 560 269 c 0
 566 275 574 283 586 291 c 0
 614 313 634 333 644 351 c 0
 656 370 661 392 661 417 c 0
 661 456 646 486 620 508 c 0
 593 530 557 541 510 541 c 0
 498 541 488 540 475 538 c 0
 462 536 451 533 437 529 c 0
 423 525 412 521 400 516 c 0
 388 511 377 505 367 499 c 1
 402 424 l 1
 425 436 444 443 462 449 c 0
 480 454 495 457 508 457 c 0
 526 457 541 453 549 445 c 0
 557 437 562 426 562 412 c 0
 562 405 561 399 560 393 c 0
 559 388 556 382 553 377 c 0
 550 372 546 366 539 359 c 0
 532 352 522 344 510 335 c 0
 501 328 491 319 484 311 c 0
 477 303 470 294 465 286 c 0
 460 278 456 267 453 258 c 0
 450 249 449 238 449 226 c 2
511 -92 m 1
 110 309 l 1
 511 709 l 1
 913 309 l 1
 511 -92 l 1
EndSplineSet
Validated: 1
EndChar

StartChar: uniF080
Encoding: 61568 61568 22
Width: 1024
VWidth: 0
Flags: HW
LayerCount: 2
Fore
SplineSet
513 666 m 5
 960 315 l 5
 917 261 l 5
 513 581 l 5
 107 261 l 5
 64 315 l 5
 513 666 l 5
513 517 m 5
 832 272 l 5
 832 37 l 5
 192 37 l 5
 192 272 l 5
 513 517 l 5
EndSplineSet
EndChar

StartChar: uniF081
Encoding: 61569 61569 23
Width: 1024
VWidth: 0
Flags: HWO
LayerCount: 2
Fore
SplineSet
159 414 m 1
 513 238 l 1
 865 414 l 1
 865 45 l 1
 159 45 l 1
 159 414 l 1
159 569 m 1
 865 569 l 1
 865 471 l 1
 513 295 l 1
 159 471 l 1
 159 569 l 1
EndSplineSet
EndChar

StartChar: uniF082
Encoding: 61570 61570 24
Width: 1024
VWidth: 0
Flags: HW
LayerCount: 2
Fore
SplineSet
513 218 m 5
 321 409 l 5
 416 409 l 5
 416 695 l 5
 607 695 l 5
 607 409 l 5
 703 409 l 5
 513 218 l 5
774 456 m 5
 894 218 l 5
 894 -69 l 5
 130 -69 l 5
 130 218 l 5
 249 456 l 5
 303 456 l 5
 183 218 l 5
 321 218 l 5
 321 113 408 27 513 27 c 4
 618 27 703 113 703 218 c 5
 840 218 l 5
 721 456 l 5
 774 456 l 5
EndSplineSet
EndChar

StartChar: uniF083
Encoding: 61571 61571 25
Width: 1009
VWidth: 0
Flags: HW
LayerCount: 2
Fore
SplineSet
412 494 m 5
 318 494 l 5
 505 682 l 5
 693 494 l 5
 599 494 l 5
 599 213 l 5
 412 213 l 5
 412 494 l 5
763 447 m 5
 881 213 l 5
 881 -69 l 5
 130 -69 l 5
 130 213 l 5
 247 447 l 5
 300 447 l 5
 183 213 l 5
 318 213 l 5
 318 109 401 25 505 25 c 4
 609 25 693 109 693 213 c 5
 828 213 l 5
 711 447 l 5
 763 447 l 5
EndSplineSet
EndChar

StartChar: uniF084
Encoding: 61572 61572 26
Width: 1024
VWidth: 0
Flags: HW
LayerCount: 2
Fore
SplineSet
657 651 m 1
 792 651 l 1
 792 -37 l 1
 232 -37 l 1
 232 651 l 1
 657 651 l 1
729 81 m 1
 729 120 l 1
 295 120 l 1
 295 81 l 1
 729 81 l 1
729 183 m 1
 729 224 l 1
 293 224 l 1
 293 183 l 1
 729 183 l 1
731 287 m 1
 731 328 l 1
 295 328 l 1
 295 287 l 1
 731 287 l 1
731 393 m 1
 731 432 l 1
 295 432 l 1
 295 393 l 1
 731 393 l 1
731 497 m 1
 731 536 l 1
 295 536 l 1
 295 497 l 1
 731 497 l 1
EndSplineSet
EndChar

StartChar: uniF085
Encoding: 61573 61573 27
Width: 1024
VWidth: 0
Flags: HW
LayerCount: 2
Fore
SplineSet
242 349 m 1
 242 573 l 1
 465 573 l 1
 465 349 l 1
 242 349 l 1
559 349 m 1
 559 573 l 1
 782 573 l 1
 782 349 l 1
 559 349 l 1
242 41 m 1
 242 265 l 1
 465 265 l 1
 465 41 l 1
 242 41 l 1
559 41 m 1
 559 265 l 1
 782 265 l 1
 782 41 l 1
 559 41 l 1
EndSplineSet
EndChar

StartChar: uniF086
Encoding: 61574 61574 28
Width: 1024
VWidth: 0
Flags: HW
LayerCount: 2
Fore
SplineSet
312 508 m 1
 769 508 l 1
 769 162 l 1
 712 162 l 1
 712 452 l 1
 312 452 l 1
 312 508 l 1
882 620 m 1
 882 303 l 1
 825 303 l 1
 825 564 l 1
 537 564 l 1
 537 620 l 1
 882 620 l 1
142 395 m 1
 656 395 l 1
 656 -6 l 1
 142 -6 l 1
 142 395 l 1
EndSplineSet
EndChar

StartChar: uniF087
Encoding: 61575 61575 29
Width: 1024
VWidth: 0
Flags: HW
LayerCount: 2
Fore
SplineSet
166 653 m 1
 483 653 l 1
 483 191 l 1
 166 191 l 1
 166 653 l 1
541 653 m 1
 858 653 l 1
 858 326 l 1
 541 326 l 1
 541 653 l 1
541 259 m 1
 858 259 l 1
 858 -39 l 1
 541 -39 l 1
 541 259 l 1
483 124 m 1
 483 -39 l 1
 166 -39 l 1
 166 124 l 1
 483 124 l 1
EndSplineSet
EndChar

StartChar: uniF088
Encoding: 61576 61576 30
Width: 879
VWidth: 0
Flags: HW
LayerCount: 2
Fore
SplineSet
463 431 m 1
 686 434 837 239 873 54 c 1
 769 137 633 253 463 211 c 1
 463 73 l 1
 147 325 l 1
 463 559 l 1
 463 431 l 1
EndSplineSet
EndChar

StartChar: uniF089
Encoding: 61577 61577 31
Width: 946
VWidth: 0
Flags: HW
LayerCount: 2
Fore
SplineSet
374 534 m 1
 469 534 687 534 782 534 c 0
 797 535 812 522 812 506 c 0
 812 427 812 347 812 268 c 1
 854 268 896 268 938 268 c 1
 882 206 825 144 769 82 c 0
 766 77 763 83 761 85 c 0
 706 146 649 207 594 268 c 1
 636 268 678 268 720 268 c 1
 720 326 720 384 720 442 c 1
 675 442 508 442 463 442 c 1
 434 473 403 503 374 534 c 1
255 532 m 0
 258 537 261 530 264 528 c 0
 319 467 375 407 430 346 c 1
 388 346 345 346 303 346 c 1
 303 288 303 230 303 172 c 1
 349 172 520 172 566 172 c 1
 595 141 626 110 655 79 c 1
 559 79 337 81 241 81 c 0
 225 81 211 95 212 110 c 0
 212 189 212 267 212 346 c 1
 170 346 128 346 86 346 c 1
 142 408 199 470 255 532 c 0
EndSplineSet
EndChar

StartChar: uniF08A
Encoding: 61578 61578 32
Width: 1024
VWidth: 0
Flags: HW
LayerCount: 2
Fore
SplineSet
205 310 m 0
 183 310 164 317 147 334 c 0
 132 349 124 368 124 390 c 0
 124 396 124 400 124 403 c 0
 124 444 132 479 147 507 c 0
 167 543 205 576 258 607 c 1
 282 575 l 1
 250 559 229 539 219 517 c 0
 210 495 204 479 204 470 c 1
 225 470 243 462 258 447 c 0
 276 429 285 410 285 390 c 0
 285 369 276 349 259 333 c 0
 243 317 225 310 205 310 c 0
413 306 m 0
 391 306 372 313 355 329 c 0
 340 344 333 364 333 386 c 0
 333 392 333 396 333 399 c 0
 333 439 341 475 356 503 c 0
 376 539 413 573 467 604 c 1
 490 571 l 1
 458 555 437 535 427 513 c 0
 418 491 413 476 413 467 c 1
 434 467 452 458 467 443 c 0
 484 425 493 406 493 386 c 0
 493 365 484 345 467 329 c 0
 451 313 433 306 413 306 c 0
891 280 m 0
 910 260 919 240 919 217 c 0
 919 213 918 208 916 203 c 0
 916 163 908 129 892 99 c 0
 869 63 831 28 776 -4 c 1
 752 30 l 1
 783 46 804 63 816 83 c 0
 826 104 830 120 830 128 c 1
 806 128 785 137 767 155 c 0
 751 172 743 193 743 217 c 0
 743 241 751 260 768 278 c 0
 787 295 807 304 830 304 c 0
 853 304 874 296 891 280 c 0
682 282 m 0
 701 262 710 241 710 218 c 0
 710 214 708 210 706 205 c 0
 706 165 699 130 683 100 c 0
 660 64 622 30 567 -2 c 1
 542 31 l 1
 573 47 595 65 607 85 c 0
 617 107 621 121 621 129 c 1
 597 129 576 138 558 156 c 0
 542 173 534 194 534 218 c 0
 534 242 542 261 559 279 c 0
 578 296 598 305 621 305 c 0
 644 305 665 298 682 282 c 0
EndSplineSet
EndChar

StartChar: uniF08B
Encoding: 61579 61579 33
Width: 1024
VWidth: 2048
Flags: HW
LayerCount: 2
Fore
SplineSet
460 380 m 0
 447 361 441 334 441 302 c 0
 441 269 447 243 460 224 c 0
 473 205 491 196 513 196 c 0
 535 196 551 205 564 224 c 0
 577 244 584 270 584 302 c 0
 584 334 577 361 564 380 c 0
 551 399 533 408 511 408 c 0
 490 408 473 399 460 380 c 0
593 123 m 1
 593 182 l 2
 586 164 573 149 556 139 c 0
 539 129 521 124 498 124 c 0
 454 124 418 142 391 174 c 0
 364 206 350 249 350 301 c 0
 350 353 364 398 391 430 c 0
 418 463 455 479 498 479 c 0
 521 479 539 473 556 463 c 0
 573 453 586 440 593 422 c 2
 593 470 l 1
 684 470 l 1
 684 196 l 1
 719 201 747 217 767 244 c 0
 787 271 796 305 796 347 c 0
 796 374 791 401 784 424 c 0
 777 447 765 468 749 488 c 0
 724 520 693 546 655 564 c 0
 617 582 575 591 531 591 c 0
 500 591 470 586 442 578 c 0
 414 570 388 559 364 543 c 0
 324 517 294 483 272 441 c 0
 250 399 238 356 238 308 c 0
 238 268 245 231 259 196 c 0
 274 161 294 130 321 104 c 0
 347 78 377 58 412 44 c 0
 447 30 483 23 522 23 c 0
 555 23 589 30 622 43 c 0
 655 56 685 72 708 94 c 1
 755 28 l 1
 722 4 685 -15 646 -28 c 0
 607 -41 567 -48 527 -48 c 0
 478 -48 432 -39 388 -22 c 0
 344 -5 305 21 272 53 c 0
 237 85 213 124 195 167 c 0
 177 210 167 258 167 308 c 0
 167 356 177 401 195 445 c 0
 213 489 238 527 271 559 c 0
 304 591 343 617 387 635 c 0
 431 653 478 662 525 662 c 0
 585 662 638 651 686 628 c 0
 734 605 774 572 806 529 c 0
 826 503 841 476 851 446 c 0
 861 416 867 382 867 349 c 0
 867 277 845 223 800 183 c 0
 755 143 692 123 610 123 c 2
 593 123 l 1
EndSplineSet
EndChar

StartChar: uniF08C
Encoding: 61580 61580 34
Width: 1024
VWidth: 0
Flags: HW
LayerCount: 2
Fore
SplineSet
953 621 m 4
 939 621 922 599 936 584 c 5
 941 577 967 569 982 564 c 5
 969 543 878 523 845 537 c 4
 832 544 810 526 822 506 c 4
 826 500 863 471 881 459 c 5
 868 447 746 452 731 464 c 5
 713 470 691 451 704 433 c 5
 782 381 l 5
 776 367 665 313 638 312 c 5
 613 329 563 330 530 312 c 4
 493 294 416 221 378 170 c 5
 365 147 336 121 277 103 c 5
 462 399 806 678 1024 676 c 5
 1023 650 982 623 953 621 c 4
494 516 m 5
 215 516 l 6
 205 516 196 514 196 502 c 6
 196 74 l 6
 196 67 201 59 209 59 c 6
 623 59 l 6
 635 59 635 65 635 71 c 6
 635 180 l 5
 649 165 717 190 721 203 c 5
 721 52 l 6
 721 16 688 -24 648 -24 c 6
 187 -24 l 6
 150 -24 112 13 112 52 c 6
 112 526 l 6
 112 561 147 596 187 596 c 6
 566 596 l 5
 529 566 524 552 494 516 c 5
EndSplineSet
EndChar

StartChar: uniF08D
Encoding: 61581 61581 35
Width: 1024
VWidth: 0
Flags: HW
LayerCount: 2
Fore
SplineSet
585 593 m 0
 616 614 651 625 691 625 c 0
 726 625 759 616 790 598 c 0
 806 590 818 580 830 567 c 0
 842 554 853 542 861 527 c 0
 869 512 876 497 880 480 c 0
 884 463 886 447 886 430 c 0
 886 355 854 279 789 200 c 0
 724 121 635 46 521 -22 c 0
 520 -23 517 -24 513 -24 c 0
 509 -24 506 -23 505 -22 c 0
 391 46 300 121 235 200 c 0
 203 240 179 278 163 317 c 0
 147 356 139 392 139 430 c 0
 139 465 147 497 164 527 c 0
 182 556 206 580 236 598 c 0
 252 607 268 614 285 618 c 0
 302 622 318 625 335 625 c 0
 373 625 407 614 439 594 c 0
 470 574 495 546 513 510 c 1
 520 528 530 542 542 556 c 0
 555 570 568 583 585 593 c 0
EndSplineSet
EndChar

StartChar: uniF08E
Encoding: 61582 61582 36
Width: 1024
VWidth: 0
Flags: HW
LayerCount: 2
Fore
SplineSet
667 155 m 5
 672 149 700 171 704 178 c 5
 746 171 778 46 709 -3 c 5
 287 -260 -124 270 363 605 c 5
 538 693 649 574 628 488 c 4
 603 378 535 346 581 255 c 5
 555 262 476 218 469 183 c 4
 454 117 411 115 382 117 c 5
 379 112 374 103 367 98 c 5
 365 74 427 38 499 45 c 5
 553 -37 666 -11 644 99 c 5
 654 103 668 128 667 135 c 6
 667 155 l 5
393 94 m 5
 444 91 478 124 488 169 c 5
 491 198 533 227 570 228 c 5
 568 203 596 144 647 147 c 5
 639 63 472 43 393 94 c 5
606 260 m 5
 838 470 l 5
 900 526 947 473 891 419 c 5
 682 187 l 5
 620 137 559 221 606 260 c 5
365 196 m 4
 349 212 328 217 306 214 c 4
 293 211 281 206 271 196 c 4
 225 150 265 70 331 82 c 4
 382 92 402 159 365 196 c 4
354 401 m 4
 342 407 329 408 316 406 c 4
 304 403 297 399 287 391 c 4
 246 352 281 282 337 292 c 4
 393 302 401 377 354 401 c 4
490 508 m 4
 480 513 470 512 458 510 c 4
 444 506 432 500 424 487 c 4
 403 451 437 404 478 414 c 4
 525 424 535 488 490 508 c 4
EndSplineSet
EndChar

StartChar: uniF08F
Encoding: 61583 61583 37
Width: 1024
VWidth: 0
Flags: HW
LayerCount: 2
Fore
SplineSet
513 654 m 0
 704 654 859 499 859 308 c 0
 859 117 704 -40 513 -40 c 0
 322 -40 165 117 165 308 c 0
 165 499 322 654 513 654 c 0
513 586 m 0
 362 586 233 451 233 308 c 0
 233 253 260 174 291 134 c 1
 685 528 l 1
 649 563 587 586 513 586 c 0
513 28 m 0
 664 28 791 166 791 308 c 0
 791 370 769 441 733 480 c 1
 339 86 l 1
 375 54 441 28 513 28 c 0
EndSplineSet
EndChar

StartChar: uniF090
Encoding: 61584 61584 38
Width: 1024
VWidth: 0
Flags: HW
LayerCount: 2
Fore
SplineSet
425 659 m 1
 532 659 l 1
 486 478 l 1
 613 478 l 1
 660 659 l 1
 767 659 l 1
 720 478 l 1
 854 478 l 1
 854 371 l 1
 695 371 l 1
 661 243 l 1
 798 243 l 1
 798 136 l 1
 636 136 l 1
 590 -45 l 1
 483 -45 l 1
 529 136 l 1
 402 136 l 1
 356 -45 l 1
 248 -45 l 1
 295 136 l 1
 160 136 l 1
 160 243 l 1
 318 243 l 1
 351 371 l 1
 215 371 l 1
 215 478 l 1
 379 478 l 1
 425 659 l 1
553 243 m 1
 587 371 l 1
 459 371 l 1
 426 243 l 1
 553 243 l 1
EndSplineSet
EndChar

StartChar: uniF091
Encoding: 61585 61585 39
Width: 1024
VWidth: 0
Flags: HW
LayerCount: 2
Fore
SplineSet
139 168 m 1
 416 456 l 1
 513 360 l 1
 704 552 l 1
 608 648 l 1
 885 648 l 1
 885 371 l 1
 800 456 l 1
 513 168 l 1
 416 265 l 1
 234 72 l 1
 139 168 l 1
725 318 m 1
 790 382 l 1
 790 -24 l 1
 725 -24 l 1
 725 318 l 1
630 222 m 1
 693 286 l 1
 693 -24 l 1
 630 -24 l 1
 630 222 l 1
437 179 m 1
 501 126 l 1
 501 -24 l 1
 437 -24 l 1
 437 179 l 1
533 -24 m 1
 533 126 l 1
 598 191 l 1
 597 -24 l 1
 533 -24 l 1
331 -24 m 1
 331 115 l 1
 394 179 l 1
 394 -24 l 1
 331 -24 l 1
299 72 m 1
 299 -24 l 1
 234 -24 l 1
 234 8 l 1
 299 72 l 1
EndSplineSet
EndChar

StartChar: uniF0A0
Encoding: 61600 61600 40
Width: 1024
VWidth: 0
Flags: HW
LayerCount: 2
Fore
SplineSet
897 483 m 1
 896 -13 l 1
 128 -13 l 1
 129 467 l 1
 236 627 l 1
 454 627 l 1
 509 543 l 1
 573 627 l 1
 790 627 l 1
 897 483 l 1
843 446 m 1
 516 446 l 1
 431 573 l 1
 267 573 l 1
 181 446 l 1
 181 41 l 1
 843 41 l 1
 843 446 l 1
EndSplineSet
EndChar

StartChar: uniF0A1
Encoding: 61601 61601 41
Width: 1024
VWidth: 0
Flags: HW
LayerCount: 2
Fore
SplineSet
192 499 m 1
 406 499 l 1
 256 746 732 765 574 499 c 1
 768 499 l 1
 768 309 l 1
 1029 436 1014 3 768 145 c 1
 768 -77 l 1
 573 -77 l 1
 715 169 280 177 422 -77 c 1
 192 -77 l 1
 192 173 l 1
 435 51 458 443 192 331 c 1
 192 499 l 1
EndSplineSet
EndChar

StartChar: uniF0A2
Encoding: 61602 61602 42
Width: 1024
VWidth: 0
Flags: HW
LayerCount: 2
Fore
SplineSet
896 606 m 1
 896 8 l 1
 128 8 l 1
 128 606 l 1
 896 606 l 1
234 499 m 1
 234 371 l 1
 363 371 l 1
 363 499 l 1
 234 499 l 1
394 478 m 1
 394 446 l 1
 661 446 l 1
 661 478 l 1
 394 478 l 1
714 478 m 1
 714 446 l 1
 778 446 l 1
 778 478 l 1
 714 478 l 1
394 425 m 1
 394 392 l 1
 597 392 l 1
 597 425 l 1
 394 425 l 1
234 318 m 1
 234 275 l 1
 778 275 l 1
 778 318 l 1
 234 318 l 1
234 243 m 1
 234 201 l 1
 778 201 l 1
 778 243 l 1
 234 243 l 1
234 168 m 1
 234 126 l 1
 630 126 l 1
 630 168 l 1
 234 168 l 1
EndSplineSet
EndChar

StartChar: uniF0A3
Encoding: 61603 61603 43
Width: 1024
VWidth: 0
Flags: HW
LayerCount: 2
Fore
SplineSet
896 691 m 1
 896 -77 l 1
 128 -77 l 1
 128 691 l 1
 896 691 l 1
181 638 m 1
 181 -24 l 1
 843 -24 l 1
 843 638 l 1
 181 638 l 1
480 585 m 1
 480 29 l 1
 234 29 l 1
 234 585 l 1
 480 585 l 1
790 585 m 1
 790 339 l 1
 544 339 l 1
 544 585 l 1
 790 585 l 1
790 275 m 1
 790 29 l 1
 544 29 l 1
 544 275 l 1
 790 275 l 1
EndSplineSet
EndChar

StartChar: uniF0A4
Encoding: 61604 61604 44
Width: 1024
VWidth: 0
Flags: HW
LayerCount: 2
Fore
SplineSet
794 352 m 5
 748 358 l 5
 744 361 l 5
 748 370 l 5
 754 377 l 5
 763 377 l 5
 792 358 l 5
 794 352 l 5
738 459 m 5
 690 419 l 5
 672 426 l 5
 682 434 l 5
 719 497 l 5
 712 468 l 5
 719 462 l 5
 734 460 l 5
 738 459 l 5
511 660 m 4
 707 660 869 498 869 302 c 4
 869 106 707 -56 511 -56 c 4
 315 -56 155 106 155 302 c 4
 155 498 315 660 511 660 c 4
631 414 m 5
 609 447 l 5
 609 414 l 5
 616 400 l 5
 629 403 l 5
 631 414 l 5
628 492 m 5
 631 500 l 5
 625 504 l 5
 613 500 l 5
 604 503 l 5
 604 490 l 5
 604 487 l 5
 618 485 l 5
 628 492 l 5
432 604 m 5
 418 595 l 5
 436 596 l 5
 472 618 l 5
 460 616 450 615 438 612 c 5
 432 604 l 5
396 599 m 5
 396 584 l 5
 408 575 l 5
 424 574 l 5
 433 583 l 5
 427 583 l 5
 404 596 l 5
 396 599 l 5
349 554 m 5
 349 550 l 5
 358 550 l 5
 365 556 l 5
 366 565 l 5
 360 567 l 5
 349 554 l 5
286 528 m 5
 285 526 l 5
 300 516 l 5
 324 528 l 5
 341 546 l 5
 342 564 l 5
 326 560 l 5
 324 562 l 5
 312 553 304 546 294 536 c 5
 295 534 l 5
 286 528 l 5
343 515 m 5
 344 519 347 520 349 524 c 5
 348 528 l 5
 341 524 l 5
 286 514 l 5
 275 519 l 5
 219 461 188 384 189 298 c 4
 189 297 191 296 191 295 c 6
 198 291 l 5
 227 242 l 5
 314 204 l 5
 326 191 l 5
 326 172 l 5
 316 146 l 5
 315 132 l 5
 352 60 l 5
 354 18 l 5
 375 6 396 -3 418 -10 c 5
 460 42 l 5
 492 68 l 5
 514 135 l 5
 498 146 l 5
 451 160 l 5
 426 196 l 5
 391 208 l 5
 314 210 l 5
 290 252 l 5
 282 252 l 5
 264 242 l 5
 260 247 257 251 257 261 c 5
 260 271 263 278 270 287 c 5
 285 295 l 5
 321 288 l 5
 326 273 l 5
 339 270 l 5
 338 292 l 5
 368 338 l 5
 436 376 l 5
 426 376 l 5
 408 390 l 5
 451 402 l 5
 454 399 l 5
 454 394 449 390 445 387 c 5
 450 382 l 5
 460 382 l 5
 468 384 l 5
 439 456 l 5
 436 455 l 5
 401 472 l 5
 391 465 l 5
 371 412 l 5
 360 420 l 5
 339 432 l 5
 324 448 l 5
 341 474 l 5
 393 515 l 5
 401 534 l 5
 426 520 l 5
 430 513 l 5
 403 491 l 5
 429 474 l 5
 435 479 l 5
 436 478 l 5
 448 495 l 5
 445 498 l 5
 460 515 l 5
 449 534 l 5
 419 558 l 5
 435 560 l 5
 435 566 l 5
 426 567 l 5
 401 554 l 5
 408 566 l 5
 391 560 l 5
 390 521 l 5
 376 513 l 5
 368 521 l 5
 391 566 l 5
 387 569 387 569 383 567 c 5
 343 515 l 5
384 484 m 5
 383 492 l 5
 380 497 l 5
 376 498 l 5
 366 484 l 5
 366 482 l 5
 381 482 l 5
 384 484 l 5
504 474 m 5
 516 463 l 5
 607 541 l 5
 628 600 l 5
 587 616 542 623 492 620 c 5
 490 617 l 5
 480 606 l 5
 478 599 l 5
 481 591 l 5
 505 589 l 5
 511 544 l 5
 500 516 l 5
 497 496 l 5
 504 474 l 5
698 37 m 5
 767 90 831 179 834 302 c 5
 838 378 806 486 727 539 c 5
 716 540 l 5
 698 533 l 5
 652 468 l 5
 654 460 l 5
 676 443 l 5
 676 433 l 5
 612 388 l 5
 613 382 l 5
 618 374 l 5
 621 366 l 5
 593 355 l 5
 592 341 l 5
 593 324 l 5
 552 244 l 5
 552 208 l 5
 582 190 l 5
 633 190 l 5
 654 184 l 5
 698 37 l 5
679 367 m 5
 681 368 684 369 686 370 c 5
 724 331 l 5
 724 331 l 5
 724 346 l 5
 729 339 l 5
 778 327 l 5
 776 313 l 5
 706 298 l 5
 695 303 l 5
 667 328 l 5
 609 324 l 5
 653 358 l 5
 675 358 l 5
 688 336 l 5
 692 337 694 339 696 343 c 5
 695 351 l 5
 680 363 l 5
 678 370 l 5
 679 367 l 5
EndSplineSet
EndChar

StartChar: uniF0A5
Encoding: 61605 61605 45
Width: 1024
VWidth: 0
Flags: HW
LayerCount: 2
Fore
SplineSet
490 341 m 1
 491 275 l 2
 491 261 490 248 473 243 c 0
 453 238 443 254 443 271 c 2
 443 317 l 2
 443 335 440 350 461 358 c 1
 474 360 486 355 490 341 c 1
428 342 m 1
 429 276 l 2
 429 262 428 248 411 243 c 0
 391 238 381 255 381 272 c 2
 381 318 l 2
 381 336 378 351 399 359 c 1
 412 361 424 356 428 342 c 1
367 343 m 1
 369 277 l 2
 369 263 368 249 351 244 c 0
 331 239 321 256 321 273 c 2
 321 319 l 2
 321 337 318 352 339 360 c 1
 352 362 363 357 367 343 c 1
304 342 m 1
 305 276 l 2
 305 262 304 248 287 243 c 0
 267 238 257 255 257 272 c 2
 257 318 l 2
 257 336 254 351 275 359 c 1
 288 361 300 356 304 342 c 1
744 352 m 0
 761 328 747 294 719 287 c 0
 678 277 649 328 679 358 c 0
 685 364 691 366 699 369 c 0
 717 372 732 368 744 352 c 0
335 610 m 1
 221 454 l 1
 797 454 l 1
 695 610 l 1
 335 610 l 1
221 396 m 1
 221 214 l 1
 797 214 l 1
 797 396 l 1
 221 396 l 1
433 -32 m 0
 221 -32 l 2
 181 -32 181 36 221 36 c 2
 221 36 359 36 433 36 c 0
 460 36 459 -32 433 -32 c 0
587 36 m 0
 797 36 l 2
 847 36 847 -32 797 -32 c 2
 587 -32 l 2
 567 -32 567 36 587 36 c 0
547 45 m 2
 547 45 l 1
 583 18 574 -46 523 -55 c 0
 467 -65 434 5 475 42 c 0
 476 43 478 44 479 45 c 0
 479 46 l 0
 479 150 l 1
 159 150 l 1
 159 454 l 1
 289 670 l 1
 729 670 l 1
 865 454 l 1
 865 150 l 1
 865 150 711 150 547 150 c 1
 547 45 l 2
EndSplineSet
EndChar

StartChar: uniF0A6
Encoding: 61606 61606 46
Width: 1024
VWidth: 0
Flags: HW
LayerCount: 2
Fore
SplineSet
234 105 m 1
 234 62 l 1
 365 62 l 1
 365 105 l 1
 234 105 l 1
192 168 m 1
 832 168 l 1
 832 19 l 1
 192 19 l 1
 192 168 l 1
234 318 m 1
 234 275 l 1
 364 275 l 1
 365 318 l 1
 234 318 l 1
192 382 m 1
 832 382 l 1
 832 232 l 1
 192 232 l 1
 192 382 l 1
234 531 m 1
 234 488 l 1
 365 488 l 1
 365 531 l 1
 234 531 l 1
192 595 m 1
 832 595 l 1
 832 446 l 1
 192 446 l 1
 192 595 l 1
EndSplineSet
EndChar

StartChar: uniF040
Encoding: 61504 61504 47
Width: 1024
VWidth: 0
Flags: HW
LayerCount: 2
Fore
SplineSet
343 446 m 2
 361 446 l 2
 391 446 416 421 416 391 c 2
 416 223 l 2
 416 193 391 168 361 168 c 2
 343 168 l 2
 313 168 288 193 288 223 c 2
 288 391 l 2
 288 421 313 446 343 446 c 2
663 190 m 2
 681 190 l 2
 711 190 736 165 736 135 c 2
 736 -33 l 2
 736 -63 711 -88 681 -88 c 2
 663 -88 l 2
 633 -88 608 -63 608 -33 c 2
 608 135 l 2
 608 165 633 190 663 190 c 2
663 702 m 2
 681 702 l 2
 711 702 736 677 736 647 c 2
 736 479 l 2
 736 449 711 424 681 424 c 2
 663 424 l 2
 633 424 608 449 608 479 c 2
 608 647 l 2
 608 677 633 702 663 702 c 2
576 584 m 1
 576 542 l 1
 128 542 l 1
 128 584 l 1
 576 584 l 1
896 542 m 1
 768 542 l 1
 768 584 l 1
 896 584 l 1
 896 542 l 1
256 328 m 1
 256 286 l 1
 128 286 l 1
 128 328 l 1
 256 328 l 1
896 286 m 1
 448 286 l 1
 448 328 l 1
 896 328 l 1
 896 286 l 1
576 72 m 1
 576 30 l 1
 128 30 l 1
 128 72 l 1
 576 72 l 1
896 30 m 1
 768 30 l 1
 768 72 l 1
 896 72 l 1
 896 30 l 1
EndSplineSet
EndChar

StartChar: uniF041
Encoding: 61505 61505 48
Width: 1024
VWidth: 0
Flags: HW
LayerCount: 2
Fore
SplineSet
848 70 m 2
 864 54 855 18 828 -9 c 0
 801 -36 765 -45 749 -29 c 2
 619 101 l 2
 607 113 607 133 619 154 c 1
 563 210 l 1
 467 136 328 144 240 232 c 0
 144 328 144 483 240 579 c 0
 336 675 491 675 587 579 c 0
 675 491 683 352 609 256 c 1
 665 200 l 1
 686 212 706 212 718 200 c 2
 848 70 l 2
276 268 m 0
 352 192 475 192 551 268 c 0
 627 344 627 467 551 543 c 0
 475 619 352 619 276 543 c 0
 200 467 200 344 276 268 c 0
EndSplineSet
EndChar

StartChar: uniF042
Encoding: 61506 61506 49
Width: 1024
VWidth: 0
Flags: HW
LayerCount: 2
Fore
SplineSet
538 477 m 0
 541 475 544 471 546 467 c 0
 548 463 549 457 549 451 c 0
 549 445 548 439 546 435 c 0
 544 431 541 427 538 425 c 0
 535 423 530 419 526 418 c 0
 522 417 518 417 513 417 c 0
 508 417 502 417 498 418 c 0
 494 419 489 423 486 425 c 0
 483 427 480 431 478 435 c 0
 476 439 475 445 475 451 c 0
 475 457 476 463 478 467 c 0
 480 471 483 475 486 477 c 0
 489 479 494 481 498 482 c 0
 502 483 508 484 513 484 c 0
 518 484 522 483 526 482 c 0
 530 481 535 479 538 477 c 0
478 137 m 1
 478 386 l 1
 546 386 l 1
 546 137 l 1
 478 137 l 1
511 641 m 0
 695 641 846 490 846 306 c 0
 846 122 695 -27 511 -27 c 0
 327 -27 178 122 178 306 c 0
 178 490 327 641 511 641 c 0
511 21 m 0
 669 21 798 148 798 306 c 0
 798 464 669 593 511 593 c 0
 353 593 226 464 226 306 c 0
 226 148 353 21 511 21 c 0
EndSplineSet
EndChar

StartChar: uniF043
Encoding: 61507 61507 50
Width: 1024
VWidth: 0
Flags: HW
LayerCount: 2
Fore
SplineSet
428 200 m 1
 428 232 l 2
 428 247 429 260 432 273 c 0
 435 286 441 297 447 309 c 0
 453 321 461 330 471 340 c 0
 481 350 493 360 507 372 c 0
 520 381 531 392 539 399 c 0
 547 406 555 415 560 422 c 0
 565 429 569 437 571 445 c 0
 573 453 574 464 574 474 c 0
 574 491 570 506 558 516 c 0
 546 526 528 531 505 531 c 0
 485 531 463 527 440 519 c 0
 417 511 392 500 367 487 c 1
 322 585 l 1
 335 592 349 600 364 606 c 0
 379 612 394 618 410 623 c 0
 426 628 441 633 458 636 c 0
 475 639 491 640 507 640 c 0
 537 640 564 637 588 630 c 0
 612 623 633 611 650 597 c 0
 667 583 679 567 688 547 c 0
 697 527 702 505 702 480 c 0
 702 461 700 445 696 430 c 0
 692 415 685 403 677 390 c 0
 669 377 659 366 646 354 c 0
 633 342 621 330 605 317 c 0
 592 308 581 299 574 292 c 0
 567 285 559 277 555 271 c 0
 551 265 549 258 547 251 c 0
 545 244 544 235 544 226 c 2
 544 200 l 1
 428 200 l 1
413 49 m 0
 413 63 415 75 419 84 c 0
 423 93 429 101 436 107 c 0
 443 113 451 117 460 120 c 0
 469 123 482 124 492 124 c 0
 502 124 512 123 521 120 c 0
 530 117 538 113 545 107 c 0
 552 101 558 93 562 84 c 0
 566 75 568 63 568 49 c 0
 568 35 566 24 562 15 c 0
 558 6 552 -2 545 -8 c 0
 538 -14 530 -19 521 -22 c 0
 512 -25 502 -26 492 -26 c 0
 482 -26 469 -25 460 -22 c 0
 451 -19 443 -14 436 -8 c 0
 429 -2 423 6 419 15 c 0
 415 24 413 35 413 49 c 0
EndSplineSet
EndChar

StartChar: uniF044
Encoding: 61508 61508 51
Width: 1024
VWidth: 0
Flags: HW
LayerCount: 2
Fore
SplineSet
249 139 m 1
 195 202 l 1
 511 475 l 1
 829 202 l 1
 775 139 l 1
 511 365 l 1
 249 139 l 1
EndSplineSet
EndChar

StartChar: uniF045
Encoding: 61509 61509 52
Width: 1024
VWidth: 0
Flags: HW
LayerCount: 2
Fore
SplineSet
774.698 475.288 m 1
 829.035 412.376 l 1
 512.021 138.712 l 1
 194.965 412.376 l 1
 249.237 475.288 l 1
 512.021 248.461 l 1
 774.698 475.288 l 1
EndSplineSet
EndChar

StartChar: uniF046
Encoding: 61510 61510 53
Width: 1024
VWidth: 0
Flags: HW
LayerCount: 2
Fore
SplineSet
689 30 m 1
 623 -27 l 1
 335 306 l 1
 623 641 l 1
 689 584 l 1
 451 306 l 1
 689 30 l 1
EndSplineSet
EndChar

StartChar: uniF047
Encoding: 61511 61511 54
Width: 1024
VWidth: 0
Flags: HW
LayerCount: 2
Fore
SplineSet
335 584 m 1
 401 641 l 1
 689 306 l 1
 401 -27 l 1
 335 30 l 1
 573 306 l 1
 335 584 l 1
EndSplineSet
EndChar

StartChar: uniF048
Encoding: 61512 61512 55
Width: 1024
VWidth: 0
Flags: HW
LayerCount: 2
Fore
SplineSet
391 335 m 2
 391 570 l 2
 391 637 444 691 511 691 c 0
 578 691 633 637 633 570 c 2
 633 335 l 2
 633 268 578 213 511 213 c 0
 444 213 391 268 391 335 c 2
794 329 m 1
 794 188 690 72 555 51 c 1
 555 -77 l 1
 472 -77 l 1
 472 51 l 1
 335 71 230 187 230 329 c 1
 313 329 l 1
 313 219 401 131 511 131 c 0
 621 131 711 219 711 329 c 1
 794 329 l 1
EndSplineSet
EndChar

StartChar: uniF049
Encoding: 61513 61513 56
Width: 1024
VWidth: 0
Flags: HW
LayerCount: 2
Fore
SplineSet
395 301 m 2
 392 311 391 323 391 335 c 2
 391 570 l 2
 391 637 444 691 511 691 c 0
 578 691 633 637 633 570 c 2
 633 517 l 1
 395 301 l 2
633 335 m 2
 633 268 578 213 511 213 c 0
 499 213 488 216 478 219 c 2
 633 359 l 1
 633 335 l 2
511 131 m 0
 621 131 711 221 711 331 c 1
 794 331 l 1
 794 190 690 72 555 51 c 1
 555 -77 l 1
 472 -77 l 1
 472 51 l 1
 426 57 384 74 348 100 c 1
 411 158 l 1
 440 140 474 131 511 131 c 0
333 245 m 1
 269 187 l 1
 244 229 230 277 230 329 c 1
 313 329 l 1
 313 299 320 271 333 245 c 1
793 551 m 1
 232 44 l 1
 201 78 l 1
 761 586 l 1
 793 551 l 1
EndSplineSet
EndChar

StartChar: uniF04A
Encoding: 61514 61514 57
Width: 1024
VWidth: 0
Flags: HW
LayerCount: 2
Fore
SplineSet
822 562 m 1
 857 481 874 393 874 305 c 0
 874 217 857 129 822 48 c 1
 781 72 l 1
 812 144 829 226 829 305 c 0
 829 384 812 466 781 538 c 1
 822 562 l 1
703 430 m 1
 746 451 l 1
 765 405 776 355 776 306 c 0
 776 256 763 211 744 164 c 1
 703 179 l 1
 719 219 731 261 731 304 c 0
 731 347 719 390 703 430 c 1
621 346 m 1
 658 363 l 1
 675 326 675 280 658 237 c 1
 621 252 l 1
 634 285 634 320 621 346 c 1
508 681 m 2
 549 681 578 514 578 308 c 0
 578 102 548 -67 507 -67 c 2
 446 -67 l 2
 426 -67 327 78 269 166 c 1
 237 166 l 1
 237 167 l 1
 190 167 l 2
 168 167 150 229 150 306 c 0
 150 383 168 447 190 447 c 2
 278 447 l 1
 336 540 426 681 446 681 c 2
 508 681 l 2
498 -16 m 0
 521 -16 540 128 540 306 c 0
 540 484 521 630 498 630 c 0
 479 630 452 538 443 409 c 1
 469 393 488 353 488 306 c 0
 488 260 469 221 443 205 c 1
 452 77 479 -16 498 -16 c 0
EndSplineSet
EndChar

StartChar: uniF04B
Encoding: 61515 61515 58
Width: 1024
VWidth: 0
Flags: HW
LayerCount: 2
Fore
SplineSet
824 615 m 1
 860 573 l 1
 200 -24 l 1
 164 18 l 1
 824 615 l 1
271 167 m 2
 249 167 231 230 231 308 c 0
 231 386 249 447 271 447 c 2
 358 447 l 1
 414 540 505 680 525 680 c 2
 588 680 l 2
 614 680 636 609 648 503 c 1
 613 472 l 1
 606 566 592 630 577 630 c 0
 558 630 533 537 523 409 c 0
 527 407 531 403 534 400 c 2
 276 167 l 1
 271 167 l 2
619 291 m 1
 658 325 l 1
 658 308 l 2
 658 102 628 -66 587 -66 c 2
 525 -66 l 2
 510 -66 452 15 399 92 c 1
 523 204 l 1
 533 77 558 -16 577 -16 c 0
 600 -16 618 121 619 291 c 1
EndSplineSet
EndChar

StartChar: uniF04C
Encoding: 61516 61516 59
Width: 1024
VWidth: 0
Flags: HW
LayerCount: 2
Fore
SplineSet
689 340 m 1
 777 340 l 1
 777 -16 l 1
 247 -16 l 1
 247 340 l 1
 335 340 l 1
 335 454 l 2
 335 541 397 630 513 630 c 0
 629 630 689 541 689 454 c 2
 689 340 l 1
409 454 m 2
 409 340 l 1
 615 340 l 1
 615 454 l 2
 615 502 584 554 513 554 c 0
 442 554 409 502 409 454 c 2
EndSplineSet
EndChar

StartChar: uniF04D
Encoding: 61517 61517 60
Width: 1024
VWidth: 0
Flags: HW
LayerCount: 2
Fore
SplineSet
689 304 m 1
 777 304 l 1
 777 -51 l 1
 247 -51 l 1
 247 304 l 1
 615 304 l 1
 615 491 l 2
 615 539 584 591 513 591 c 0
 442 591 409 539 409 491 c 2
 409 377 l 1
 335 377 l 1
 335 491 l 2
 335 578 397 665 513 665 c 0
 629 665 689 578 689 491 c 2
 689 304 l 1
EndSplineSet
EndChar

StartChar: uniF04E
Encoding: 61518 61518 61
Width: 1024
VWidth: 0
Flags: HW
LayerCount: 2
Fore
SplineSet
874 39 m 2
 892 8 878 -18 842 -18 c 2
 182 -18 l 2
 146 -18 132 8 150 39 c 2
 479 609 l 2
 497 640 527 640 545 609 c 2
 874 39 l 2
558 72 m 1
 558 72 l 1
 558 160 l 1
 467 160 l 1
 467 72 l 1
 558 72 l 1
558 217 m 1
 558 217 l 1
 558 425 l 1
 467 425 l 1
 467 217 l 1
 558 217 l 1
EndSplineSet
EndChar

StartChar: uniF04F
Encoding: 61519 61519 62
Width: 1024
VWidth: 0
Flags: HW
LayerCount: 2
Fore
SplineSet
646 638 m 1
 843 441 l 1
 843 173 l 1
 646 -24 l 1
 377 -24 l 1
 181 173 l 1
 181 441 l 1
 377 638 l 1
 646 638 l 1
555 135 m 1
 555 207 l 1
 469 207 l 1
 469 135 l 1
 555 135 l 1
555 250 m 1
 555 508 l 1
 469 508 l 1
 469 250 l 1
 555 250 l 1
EndSplineSet
EndChar

StartChar: uniF050
Encoding: 61520 61520 63
Width: 1024
VWidth: 0
Flags: HW
LayerCount: 2
Fore
SplineSet
269 64 m 0
 268 67 263 69 261 71 c 2
 245 83 l 2
 227 97 214 108 198 124 c 0
 153 171 120 238 116 304 c 2
 115 316 l 2
 115 349 119 380 129 412 c 0
 138 440 152 471 170 495 c 0
 292 665 548 700 727 604 c 0
 815 557 885 474 902 374 c 0
 904 361 907 350 907 337 c 0
 907 302 902 272 892 240 c 0
 883 211 868 183 850 158 c 0
 819 114 779 79 732 53 c 0
 674 21 607 1 541 -2 c 2
 525 -3 l 2
 495 -3 466 -2 437 3 c 2
 409 8 l 2
 405 9 397 11 394 10 c 0
 391 9 247 -119 240 -122 c 2
 240 -122 270 61 269 64 c 0
476 533 m 1
 490 263 l 1
 543 263 l 1
 555 533 l 1
 476 533 l 1
486 180 m 0
 462 153 480 110 517 109 c 0
 557 108 576 157 547 183 c 0
 543 186 538 189 533 191 c 0
 527 193 521 195 514 194 c 0
 502 192 493 188 486 180 c 0
EndSplineSet
EndChar

StartChar: uniF058
Encoding: 61528 61528 64
Width: 1024
VWidth: 0
Flags: HW
LayerCount: 2
Fore
SplineSet
629 393 m 1
 543 306 l 1
 631 219 l 1
 600 187 l 1
 597 190 l 1
 511 276 l 1
 424 187 l 1
 392 219 l 1
 395 221 l 1
 481 306 l 1
 392 395 l 1
 424 427 l 1
 426 424 l 1
 511 338 l 1
 600 427 l 1
 631 395 l 1
 629 393 l 1
887 328 m 1
 887 287 l 1
 798 287 l 1
 788 146 674 31 533 21 c 1
 533 -68 l 1
 492 -68 l 1
 492 21 l 1
 351 31 236 145 226 286 c 1
 137 286 l 1
 137 327 l 1
 226 327 l 1
 236 468 350 583 491 593 c 1
 491 682 l 1
 532 682 l 1
 532 593 l 1
 673 583 788 469 798 328 c 1
 887 328 l 1
513 63 m 0
 648 63 757 173 757 308 c 0
 757 443 646 552 511 552 c 0
 376 552 267 441 267 306 c 0
 267 171 378 63 513 63 c 0
EndSplineSet
EndChar

StartChar: uniF068
Encoding: 61544 61544 65
Width: 1024
VWidth: 0
Flags: HW
LayerCount: 2
Fore
SplineSet
513 615 m 0
 627 615 718 523 718 409 c 0
 718 295 627 204 513 204 c 0
 399 204 306 295 306 409 c 0
 306 523 399 615 513 615 c 0
522 246 m 0
 583 246 638 287 669 348 c 1
 376 348 l 1
 407 287 461 246 522 246 c 0
636 177 m 1
 715 156 778 106 807 -1 c 1
 217 -1 l 1
 246 106 309 156 388 177 c 1
 425 157 468 146 513 146 c 0
 558 146 599 157 636 177 c 1
EndSplineSet
EndChar

StartChar: uniF069
Encoding: 61545 61545 66
Width: 511
VWidth: 0
Flags: HW
LayerCount: 2
Fore
SplineSet
384 177 m 0
 287 177 208 255 208 352 c 0
 208 449 287 530 384 530 c 0
 481 530 560 449 560 352 c 0
 560 255 481 177 384 177 c 0
518 301 m 1
 267 301 l 1
 294 249 341 214 393 214 c 0
 446 214 491 249 518 301 c 1
490 154 m 1
 558 136 612 94 637 2 c 1
 131 2 l 1
 156 94 210 136 278 154 c 1
 310 137 346 128 384 128 c 0
 422 128 458 137 490 154 c 1
595 383 m 1
 586 447 547 501 494 534 c 1
 526 580 580 612 640 612 c 0
 737 612 816 533 816 436 c 0
 816 339 737 259 640 259 c 0
 619 259 600 263 581 270 c 1
 586 283 589 296 592 310 c 1
 609 301 628 296 648 296 c 0
 701 296 747 331 774 383 c 1
 595 383 l 1
746 237 m 1
 814 219 868 176 893 84 c 1
 643 84 l 1
 614 134 570 168 514 186 c 1
 529 198 543 212 555 227 c 1
 581 215 610 210 640 210 c 0
 678 210 714 220 746 237 c 1
EndSplineSet
EndChar

StartChar: uniF06A
Encoding: 61546 61546 67
Width: 1024
VWidth: 0
Flags: HW
LayerCount: 2
Fore
SplineSet
513 615 m 0
 627 615 718 523 718 409 c 0
 718 295 627 203 513 203 c 0
 399 203 306 295 306 409 c 0
 306 523 399 615 513 615 c 0
522 246 m 0
 583 246 638 287 669 348 c 1
 376 348 l 1
 407 287 461 246 522 246 c 0
289 327 m 1
 292 320 295 313 298 306 c 0
 278 288 252 277 223 277 c 0
 162 277 113 326 113 387 c 0
 113 448 162 498 223 498 c 0
 246 498 267 491 285 479 c 1
 278 457 274 433 274 409 c 0
 274 390 277 372 281 354 c 1
 150 354 l 1
 167 321 196 300 229 300 c 0
 252 300 273 310 289 327 c 1
801 498 m 0
 862 498 911 448 911 387 c 0
 911 326 862 277 801 277 c 0
 772 277 746 288 726 306 c 0
 731 316 735 325 738 337 c 1
 755 314 779 300 806 300 c 0
 839 300 868 321 885 354 c 1
 743 354 l 1
 747 372 750 390 750 409 c 0
 750 433 746 457 739 479 c 1
 757 491 778 498 801 498 c 0
636 177 m 1
 715 156 778 106 807 -1 c 1
 217 -1 l 1
 246 106 309 156 388 177 c 1
 425 157 468 146 513 146 c 0
 558 146 599 157 636 177 c 1
355 223 m 1
 316 210 283 192 255 167 c 1
 64 167 l 1
 79 225 114 249 157 261 c 1
 177 249 199 245 223 245 c 0
 247 245 270 249 290 261 c 1
 315 254 338 244 355 223 c 1
769 167 m 1
 741 192 708 210 669 223 c 1
 686 244 709 254 734 261 c 1
 754 249 777 245 801 245 c 0
 825 245 847 249 867 261 c 1
 910 249 945 225 960 167 c 1
 769 167 l 1
EndSplineSet
EndChar

StartChar: uniF05C
Encoding: 61532 61532 68
Width: 1024
VWidth: 0
Flags: HW
LayerCount: 2
Fore
SplineSet
644 274 m 0
 644 201 586 142 513 142 c 0
 440 142 380 201 380 274 c 0
 380 347 440 406 513 406 c 0
 586 406 644 347 644 274 c 0
870 526 m 1
 870 526 870 511 870 493 c 2
 870 61 l 2
 870 43 871 28 870 28 c 0
 153 28 l 1
 153 28 153 43 153 61 c 2
 153 61 153 414 153 430 c 0
 153 467 l 1
 310 518 l 1
 310 518 333 526 354 526 c 0
 399 526 l 1
 399 554 l 2
 399 590 399 586 399 586 c 1
 627 586 l 1
 627 586 627 590 627 554 c 2
 627 526 l 1
 870 526 l 1
513 81 m 0
 620 81 705 167 705 274 c 0
 705 381 620 467 513 467 c 0
 406 467 319 381 319 274 c 0
 319 167 406 81 513 81 c 0
298 543 m 1
 183 504 l 1
 183 558 l 2
 183 567 l 1
 298 567 l 1
 298 567 298 564 298 558 c 2
 298 543 l 1
EndSplineSet
EndChar

StartChar: uniF05D
Encoding: 61533 61533 69
Width: 1024
VWidth: 0
Flags: HW
LayerCount: 2
Fore
SplineSet
807 461 m 1
 839 461 l 1
 839 156 l 1
 807 156 l 1
 680 231 l 1
 680 386 l 1
 807 461 l 1
185 432 m 2
 185 467 212 494 247 494 c 2
 648 494 l 1
 648 120 l 1
 247 120 l 2
 212 120 185 148 185 183 c 2
 185 432 l 2
EndSplineSet
EndChar

StartChar: uniF05E
Encoding: 61534 61534 70
Width: 1024
VWidth: 0
Flags: HW
LayerCount: 2
Fore
SplineSet
161 658 m 1
 863 658 l 1
 863 -44 l 1
 161 -44 l 1
 161 658 l 1
816 3 m 1
 816 610 l 1
 209 610 l 1
 209 3 l 1
 816 3 l 1
774 158 m 1
 774 56 l 1
 256 56 l 1
 256 234 l 1
 381 323 l 1
 532 189 l 1
 642 238 l 1
 774 158 l 1
EndSplineSet
EndChar

StartChar: uniF059
Encoding: 61529 61529 71
Width: 1024
VWidth: 0
Flags: HW
LayerCount: 2
Fore
SplineSet
887 328 m 1
 887 287 l 1
 798 287 l 1
 788 146 674 31 533 21 c 1
 533 -68 l 1
 492 -68 l 1
 492 21 l 1
 351 31 236 145 226 286 c 1
 137 286 l 1
 137 327 l 1
 226 327 l 1
 236 468 350 583 491 593 c 1
 491 682 l 1
 532 682 l 1
 532 593 l 1
 673 583 788 469 798 328 c 1
 887 328 l 1
513 63 m 0
 648 63 757 173 757 308 c 0
 757 443 646 552 511 552 c 0
 376 552 267 441 267 306 c 0
 267 171 378 63 513 63 c 0
EndSplineSet
EndChar

StartChar: uniF05A
Encoding: 61530 61530 72
Width: 1024
VWidth: 0
Flags: HW
LayerCount: 2
Fore
SplineSet
513 456 m 0
 595 456 661 390 661 308 c 0
 661 226 595 158 513 158 c 0
 431 158 363 226 363 308 c 0
 363 390 431 456 513 456 c 0
887 329 m 1
 887 287 l 1
 798 286 l 1
 788 145 675 33 534 21 c 1
 534 -68 l 1
 491 -68 l 1
 491 21 l 1
 350 31 238 144 226 285 c 1
 137 285 l 1
 137 327 l 1
 226 328 l 1
 236 469 349 581 490 593 c 1
 490 682 l 1
 532 682 l 1
 533 593 l 1
 674 583 786 470 798 329 c 1
 887 329 l 1
513 62 m 0
 648 62 757 173 757 308 c 0
 757 443 646 552 511 552 c 0
 376 552 267 443 267 308 c 0
 267 173 378 62 513 62 c 0
EndSplineSet
EndChar

StartChar: uniF092
Encoding: 61586 61586 73
Width: 1024
VWidth: 0
Flags: HW
LayerCount: 2
Fore
SplineSet
544 669 m 2
 567 669 597 669 597 669 c 1
 768 499 l 1
 768 328 l 1
 513 201 l 1
 256 328 l 1
 256 669 l 1
 544 669 l 2
597 509 m 1
 683 509 l 1
 597 595 l 1
 597 509 l 1
513 158 m 1
 864 328 l 1
 864 -35 l 1
 160 -35 l 1
 160 328 l 1
 513 158 l 1
EndSplineSet
EndChar

StartChar: uniF034
Encoding: 61492 61492 74
Width: 1024
VWidth: 0
Flags: HW
LayerCount: 2
Fore
SplineSet
364 556 m 1
 484 436 l 1
 741 692 l 1
 885 548 l 1
 629 292 l 1
 749 172 l 1
 364 172 l 1
 364 556 l 1
630 105 m 1
 704 105 l 1
 704 -77 l 1
 128 -77 l 1
 128 509 l 1
 299 509 l 1
 299 435 l 1
 203 435 l 1
 203 -2 l 1
 630 -2 l 1
 630 105 l 1
EndSplineSet
EndChar

StartChar: uniF035
Encoding: 61493 61493 75
Width: 1024
VWidth: 0
Flags: HW
LayerCount: 2
Fore
SplineSet
495 131 m 1
 342 285 l 1
 614 556 l 1
 484 691 l 1
 896 691 l 1
 895 275 l 1
 768 403 l 1
 495 131 l 1
630 168 m 1
 704 243 l 1
 704 -77 l 1
 128 -77 l 1
 128 509 l 1
 470 509 l 1
 394 435 l 1
 203 435 l 1
 203 -2 l 1
 630 -2 l 1
 630 168 l 1
EndSplineSet
EndChar

StartChar: uniF010
Encoding: 61456 61456 76
Width: 1024
VWidth: 0
Flags: HW
LayerCount: 2
Fore
SplineSet
896 691 m 1
 896 -77 l 1
 128 -77 l 1
 128 691 l 1
 896 691 l 1
187 528 m 1
 285 438 l 1
 366 528 l 1
 187 528 l 1
291 430 m 1
 387 346 l 1
 471 439 l 1
 377 524 l 1
 291 430 l 1
292 245 m 1
 378 338 l 1
 286 424 l 1
 292 245 l 1
438 380 m 1
 447 92 l 1
 737 100 l 1
 438 380 l 1
428 381 m 1
 289 230 l 1
 440 94 l 1
 428 381 l 1
658 205 m 1
 844 426 l 1
 434 390 l 1
 658 205 l 1
EndSplineSet
EndChar
